PathFileType	4	(X/Y/Z)	Squat.trc	
DataRate	CameraRate	NumFrames	NumMarkers	Units	OrigDataRate	OrigDataStartFrame	OrigNumFrames	
100.00	100.00	50	6	mm	100.00	1928	1542	
Frame#	Time	RAsis			SACR			LThighInferior			LThighLateral			LAsis			LThighSuperior			
		X1	Y1	Z1	X2	Y2	Z2	X3	Y3	Z3	X4	Y4	Z4	X5	Y5	Z5	X6	Y6	Z6	

1157	11.560	538.73846	1308.95276	950.80621	415.30209	1142.12793	1004.05402	211.66022	1283.26074	609.11462	240.78085	1355.67346	704.51129	290.47906	1312.01172	937.95135	203.45592	1254.60913	754.27063 
1158	11.570	538.83234	1307.37292	949.74622	415.29257	1140.90710	1003.75940	211.51631	1282.96423	608.73376	240.75960	1354.74585	704.59155	290.58081	1310.35132	936.74829	203.61044	1253.13562	753.63745 
1159	11.580	538.96741	1305.77917	948.61987	415.30707	1139.59326	1003.53406	211.51294	1282.50793	608.17834	240.75273	1353.75684	704.63281	290.62018	1308.71814	935.53168	203.72020	1251.77527	752.96722 
1160	11.590	539.13550	1304.06592	947.38702	415.39774	1138.28149	1003.30939	211.48611	1282.04639	607.60016	240.75648	1352.68005	704.62805	290.73004	1306.99963	934.20496	203.71036	1250.57812	752.32129 
1161	11.600	539.32690	1302.32288	946.09454	415.48047	1136.88000	1003.04218	211.38873	1281.68811	607.07135	240.59129	1351.78992	704.68994	290.64337	1305.55640	933.05969	203.46478	1249.46802	751.81714 
1162	11.610	539.49872	1300.63647	944.81818	415.45377	1135.37927	1002.61493	211.31229	1281.43933	606.56848	240.41042	1350.99585	704.80658	291.11832	1303.45349	931.52350	203.26216	1248.26501	751.26324 
1163	11.620	539.68738	1298.90735	943.49622	415.26932	1133.84705	1002.04517	211.25232	1281.26379	606.08258	240.55052	1349.92664	704.85901	291.34000	1301.63184	930.04706	203.62601	1246.65356	750.31055 
1164	11.630	539.86731	1297.08887	942.07324	415.23947	1132.32471	1001.45911	211.12354	1281.13306	605.60596	240.51718	1348.87683	704.80896	291.42068	1299.96008	928.56549	203.91765	1245.11255	749.37738 
1165	11.640	539.99445	1295.29456	940.65930	415.43478	1130.82495	1000.91876	210.90302	1281.07458	605.13654	240.09608	1348.03528	704.71216	291.69958	1298.05957	926.86890	203.92427	1243.85547	748.65417 
1166	11.650	540.18243	1293.55957	939.20953	415.68616	1129.44788	1000.30640	210.69788	1281.02673	604.63452	239.75438	1347.20874	704.69244	291.96747	1296.20630	925.16565	203.74561	1242.86499	747.86768 
1167	11.660	540.37091	1291.78491	937.68390	415.90927	1128.29993	999.50800	210.52460	1280.98279	604.07886	239.55728	1346.39673	704.71490	291.99072	1294.64600	923.56494	203.58150	1241.85718	746.96765 
1168	11.670	540.49896	1289.98364	936.15161	416.01602	1127.07861	998.67468	210.32837	1281.02527	603.45959	239.38907	1345.63086	704.67853	292.13510	1292.95117	921.84381	204.23433	1240.06250	745.84656 
1169	11.680	540.68304	1288.25513	934.55389	416.10846	1125.61804	997.85645	210.11443	1281.18237	602.76428	239.27415	1344.85864	704.55402	292.34479	1291.19434	920.01727	204.87401	1238.38098	744.68628 
1170	11.690	540.84509	1286.57556	932.91113	416.34866	1124.08582	996.95245	209.90714	1281.42542	602.01337	239.22029	1344.07312	704.33502	292.43130	1289.60266	918.17456	204.95825	1237.36853	743.63727 
1171	11.700	540.89813	1284.85205	931.26501	416.12872	1122.62183	995.92291	209.79836	1281.76184	601.28156	239.17720	1343.35583	704.10931	292.70596	1287.81433	916.11407	204.98711	1236.39661	742.54260 
1172	11.710	541.00183	1283.15515	929.55231	416.25870	1121.49023	994.59680	209.74576	1282.13989	600.55597	239.19232	1342.70764	703.91528	292.95432	1286.10583	914.05530	204.69981	1235.55957	741.45300 
1173	11.720	541.19543	1281.53577	927.74622	416.65347	1120.59521	993.50067	209.59486	1282.44836	599.74799	239.13651	1342.15588	703.68219	292.96768	1284.70471	912.07819	204.46916	1234.75549	740.24207 
1174	11.730	541.34552	1279.86169	925.86035	416.54904	1118.81885	992.51855	209.45772	1282.75146	598.87439	238.86804	1341.68896	703.31036	293.20804	1283.08362	909.96899	204.97784	1233.63171	738.77277 
1175	11.740	541.44122	1278.17322	923.95300	416.48798	1117.63745	991.01752	209.43098	1283.05078	597.95587	238.65903	1341.18579	702.84564	293.45380	1281.55249	907.96350	205.53320	1232.56384	737.37720 
1176	11.750	541.55225	1276.54907	922.04724	416.42484	1116.63220	989.46405	209.46512	1283.28943	596.98822	238.57956	1340.67163	702.37366	293.20566	1280.61609	906.07874	205.66730	1231.74451	736.07477 
1177	11.760	541.73456	1275.01794	920.13660	416.24969	1115.28516	988.05188	209.52017	1283.54346	596.02063	238.53191	1340.22424	701.88800	293.90302	1278.64648	903.80933	205.71513	1230.93762	734.71265 
1178	11.770	541.95825	1273.59290	918.19049	416.18896	1114.03857	986.59210	209.53336	1283.91919	595.09491	238.55864	1339.84009	701.41333	294.19254	1277.09448	901.66473	205.82503	1230.07312	733.28485 
1179	11.780	542.17310	1272.22351	916.16284	416.21460	1113.05640	984.99390	209.53818	1284.39819	594.18683	238.68810	1339.46558	700.95337	294.08014	1275.96216	899.65094	205.97984	1229.39368	731.92743 
1180	11.790	542.38660	1270.93787	914.06995	416.26367	1112.05054	983.43127	209.53468	1284.93701	593.28186	238.90031	1339.07629	700.48700	294.39444	1274.53943	897.76019	206.29414	1229.01270	730.67969 
1181	11.800	542.53925	1269.67114	911.91150	416.43253	1110.99316	981.90027	209.48985	1285.53345	592.45483	239.09047	1338.74438	700.04742	294.01648	1273.70532	895.89026	206.79195	1228.54822	729.26434 
1182	11.810	542.60406	1268.43958	909.72107	416.75464	1110.01941	980.35754	209.45227	1286.09839	591.69238	239.24379	1338.47778	699.64240	294.38370	1272.07349	893.77435	207.08382	1228.00171	727.90784 
1183	11.820	542.61188	1267.33228	907.52594	417.02429	1109.21814	978.81036	209.40012	1286.66528	590.92767	239.41394	1338.19971	699.24524	294.36975	1270.75610	891.77545	207.06844	1227.66211	726.79236 
1184	11.830	542.55823	1266.21582	905.25397	416.98627	1108.58167	977.16815	209.32285	1287.24170	590.17249	239.57234	1337.89380	698.85352	294.46753	1269.28723	889.69788	206.94308	1227.41345	725.66528 
1185	11.840	542.46674	1265.06641	902.91449	417.34317	1107.47083	975.67792	209.26602	1287.75012	589.41931	239.73669	1337.54590	698.44501	294.58160	1267.87720	887.71942	206.94640	1226.94434	724.48431 
1186	11.850	542.36945	1263.99329	900.57666	417.34888	1106.62451	973.93506	209.16986	1288.30176	588.73615	239.91579	1337.12976	697.98425	294.09872	1266.85339	886.02167	207.11314	1226.26819	723.26031 
1187	11.860	542.30017	1263.01440	898.31653	417.49484	1105.85266	972.26056	209.04962	1288.80676	588.08160	240.01996	1336.68652	697.47992	293.58554	1265.85547	884.29358	207.21521	1225.66052	722.04559 
1188	11.870	542.27283	1262.08557	896.12054	417.82019	1104.72742	970.61737	208.98741	1289.05347	587.28558	240.03323	1336.27771	697.02100	293.93628	1264.43103	882.03516	207.23976	1225.08313	720.82037 
1189	11.880	542.15656	1261.10132	893.84583	417.87753	1104.21216	968.91754	208.83252	1289.27258	586.45294	239.99542	1335.86487	696.61304	294.32196	1262.96729	879.69696	207.27589	1224.40393	719.59137 
1190	11.890	542.03174	1260.16455	891.51971	418.12506	1103.45239	967.17517	208.55135	1289.56335	585.68011	239.86169	1335.37769	696.18005	294.34958	1261.68823	877.64624	207.23845	1223.71082	718.41162 
1191	11.900	542.01898	1259.37341	889.24280	418.45663	1102.78174	965.49384	208.28728	1289.71021	584.88464	239.56500	1334.82751	695.70721	294.39258	1260.40576	875.53546	207.02704	1223.11658	717.23114 
1192	11.910	542.03650	1258.64502	887.04871	418.67526	1102.09717	963.82806	208.07726	1289.67273	583.99060	239.12622	1334.21289	695.16241	294.31091	1259.32935	873.50836	206.81740	1222.41125	715.95496 
1193	11.920	542.04895	1257.88989	884.80511	418.93134	1101.34106	962.15424	207.90707	1289.54456	583.00415	238.56396	1333.54639	694.54309	294.20584	1258.35559	871.62164	206.73155	1221.44067	714.50568 
1194	11.930	541.95581	1256.99133	882.37573	419.29840	1100.72095	960.49890	207.75696	1289.39172	581.99133	238.02206	1332.80042	693.86316	294.05969	1257.37000	869.56781	206.66187	1220.46277	713.08466 
1195	11.940	541.86603	1256.11157	879.93268	419.62415	1100.18433	958.78113	207.58614	1289.24402	580.95959	237.53723	1332.02905	693.11346	293.91827	1256.42041	867.46698	204.79289	1221.44226	712.49103 
1196	11.950	541.91302	1255.36304	877.52753	419.77014	1099.66235	956.84070	207.34474	1289.18018	579.94336	236.96910	1331.38037	692.36737	294.00934	1255.32227	865.35773	204.78978	1220.54016	710.91553 
1197	11.960	543.63348	1255.93445	876.54663	419.89337	1099.07288	954.85632	207.08379	1289.24988	578.99329	236.42795	1330.79114	691.63824	294.33527	1253.89758	862.88837	206.71146	1217.61072	708.55310 
1198	11.970	544.14478	1255.55786	874.53027	420.09619	1098.36279	952.90295	206.88745	1289.40894	578.02881	235.95126	1330.24353	690.85553	293.56378	1253.07690	861.41736	206.72116	1216.88049	707.10089 
1199	11.980	544.07117	1254.72888	871.95422	420.36703	1097.64148	950.93695	206.79582	1289.59326	576.93341	235.50920	1329.81360	690.05457	293.57922	1252.06677	859.42657	206.64420	1216.29858	705.59985 
1200	11.990	544.10675	1253.94360	869.33258	420.61142	1096.98035	948.83405	206.73799	1289.84265	575.77319	235.18971	1329.44250	689.27844	293.59622	1251.14941	856.98065	206.63809	1215.73950	704.00696 
1201	12.000	544.18134	1253.14563	866.61682	420.67343	1096.47217	946.52405	206.65460	1290.19653	574.64404	235.00845	1329.06848	688.48724	293.53461	1250.22925	854.22534	206.65636	1215.20166	702.38147 
1202	12.010	544.21405	1252.30188	863.74640	420.87448	1095.90710	944.22571	206.61324	1290.57275	573.49213	234.89299	1328.72400	687.64539	293.80878	1249.13562	851.38727	206.62138	1214.76868	700.72778 
1203	12.020	544.20490	1251.41016	860.80554	421.16055	1095.13086	941.86133	206.61818	1290.95471	572.26526	234.79466	1328.41443	686.74701	294.07889	1248.09033	848.68304	206.64789	1214.32568	698.96252 
1204	12.030	544.16504	1250.50806	857.86255	421.25433	1094.32239	939.33514	206.61075	1291.42090	570.99054	234.73940	1328.08350	685.80444	294.19540	1247.14917	845.94958	206.76997	1213.81470	697.10565 
1205	12.040	544.14429	1249.56812	854.85449	421.42270	1093.56042	936.74823	206.57127	1291.97729	569.72290	234.73865	1327.73230	684.83209	294.32568	1246.12219	842.99884	206.89790	1213.34937	695.22607 
1206	12.050	543.99841	1248.27368	851.69769	421.71341	1092.81128	934.21796	206.62390	1292.49353	568.42206	234.77893	1327.43164	683.85760	294.46695	1245.06531	839.93219	207.01408	1212.96814	693.32727 
